<svg width="25" height="25" viewBox="0 0 25 25" fill="none" xmlns="http://www.w3.org/2000/svg">
<rect width="25" height="25" rx="4" fill="#F3F3F3"/>
<path fill-rule="evenodd" clip-rule="evenodd" d="M17.7 6H9.90005C9.18505 6 8.60005 6.585 8.60005 7.3V15.1C8.60005 15.815 9.18505 16.4 9.90005 16.4H17.7C18.415 16.4 19 15.815 19 15.1V7.3C19 6.585 18.415 6 17.7 6ZM6.65 8.59999C6.2925 8.59999 6 8.89249 6 9.24999V17.7C6 18.415 6.585 19 7.3 19H15.75C16.1075 19 16.4 18.7075 16.4 18.35C16.4 17.9925 16.1075 17.7 15.75 17.7H7.95C7.5925 17.7 7.3 17.4075 7.3 17.05V9.24999C7.3 8.89249 7.0075 8.59999 6.65 8.59999ZM11.1999 11.85H16.3999C16.7574 11.85 17.0499 11.5575 17.0499 11.2C17.0499 10.8425 16.7574 10.55 16.3999 10.55H11.1999C10.8424 10.55 10.5499 10.8425 10.5499 11.2C10.5499 11.5575 10.8424 11.85 11.1999 11.85ZM13.7999 14.45H11.1999C10.8424 14.45 10.5499 14.1575 10.5499 13.8C10.5499 13.4425 10.8424 13.15 11.1999 13.15H13.7999C14.1574 13.15 14.4499 13.4425 14.4499 13.8C14.4499 14.1575 14.1574 14.45 13.7999 14.45ZM11.1999 9.24998H16.3999C16.7574 9.24998 17.0499 8.95748 17.0499 8.59998C17.0499 8.24248 16.7574 7.94998 16.3999 7.94998H11.1999C10.8424 7.94998 10.5499 8.24248 10.5499 8.59998C10.5499 8.95748 10.8424 9.24998 11.1999 9.24998Z" fill="#372579"/>
</svg>
