<svg width="25" height="25" viewBox="0 0 25 25" fill="none" xmlns="http://www.w3.org/2000/svg">
<rect width="25" height="25" rx="4" fill="#F3F3F3"/>
<path d="M11.0854 18.2195V14.3167H13.9115V18.2195C13.9115 18.6488 14.2294 19 14.618 19H16.7375C17.1261 19 17.444 18.6488 17.444 18.2195V12.7556H18.6451C18.9701 12.7556 19.1256 12.3107 18.8783 12.0766L12.9718 6.19904C12.7033 5.93365 12.2935 5.93365 12.0251 6.19904L6.11859 12.0766C5.87837 12.3107 6.02674 12.7556 6.35174 12.7556H7.55282V18.2195C7.55282 18.6488 7.87075 19 8.25933 19H10.3789C10.7675 19 11.0854 18.6488 11.0854 18.2195Z" fill="#372579"/>
</svg>
